<?xml version="1.0" encoding="utf-8"?>
<!-- Generator: Adobe Illustrator 25.0.1, SVG Export Plug-In . SVG Version: 6.00 Build 0)  -->
<svg version="1.1" id="Layer_1" xmlns="http://www.w3.org/2000/svg" xmlns:xlink="http://www.w3.org/1999/xlink" x="0px" y="0px"
	 viewBox="0 0 595.3 841.9" style="enable-background:new 0 0 595.3 841.9;" xml:space="preserve">
<style type="text/css">
	.st0{fill:#0D87B0;}
	.st1{fill:#C2E1E9;}
	.st2{fill:#0B7190;}
	.st3{fill:#18343A;}
	.st4{fill:url(#SVGID_1_);}
	.st5{fill:#1092B5;}
	.st6{fill:url(#SVGID_2_);}
	.st7{fill:#1096B5;}
	.st8{fill:url(#SVGID_3_);}
	.st9{fill:#0A9EC0;}
	.st10{fill:#148DB2;}
</style>
<g>
	<path class="st1" d="M274,430c0,0-144.6,163.7-83.5,175.2c-17.1,4.3-29.5,24.8-29.5,24.8l-12.7-100l7.6-67l46.4-33l43.1-31.9
		l19.1-1.3L274,430z"/>
	<path class="st2" d="M373.9,402.4c-1.6,1.9-3.2,3.7-4.8,5.6c-0.4,0.3-0.8,0.6-1.1,0.8c-6.9,2.7-7.1,2.6-10-4.3
		c-1.3-3.1-2.4-6.3-4-9.3c-2.1-4-3.7-8.4-7.7-11.2l0,0c-0.1-1-0.6-1.6-1.6-1.7c-1.5-1.7-3.2-3.2-5.4-4.1c-0.3-0.8-0.5-1.7-1.7-1.7
		l-0.1-0.1c-1.8-2.2,0.6-2.7,1.7-3.4c9.6-6.3,19.3-12.6,29.4-18.3c6.1-3.5,12.3-6.8,18.5-10.3c2.2-1.2,2.9-0.8,3.4,1.6
		c1.1,5.4,2,11,1.5,16.4c-0.6,6.2-1.4,12.5-4.6,18.1"/>
	<path class="st1" d="M566.8,213.4c0,0,5.5,10.9-9.1,24c-12.2,10.9-54,33.2-67.6,40.3c-2.8,1.5-5.3,3.5-7.3,6
		c-5,6.2-15,18.1-19.7,21.5c-26.9,19.2-108.6,54.2-150.1,91.7c-41.5,37.5-43.4-61.5-43.4-61.5l57.9-64.6l113.2-24.8l47.7-24.8
		L566.8,213.4z"/>
	<path class="st1" d="M389.2,246.6c-7.7,0-14.2-6.7-14.1-14.7c0.1-8,6.6-14.7,14.3-14.7c8.1,0,14.3,6.5,14.3,14.9
		C403.7,240.7,397.7,246.6,389.2,246.6z M389,221.9c0,0-0.3,0-0.6,0c-1.1,0.2-2.8-0.5-3.2,0.9c-0.4,1.4,1.3,1.5,2.2,1.9
		c1.6,0.8,2.1,2.3,2.3,3.9c0.6,4.7-2.8,7.5-7.8,6.4c-0.6-0.1-1.4-0.5-1.9,0c-0.8,0.8,0.2,1.4,0.5,2c2.7,4.5,8.1,6.5,12.8,4.6
		c4.4-1.7,6.9-6.4,6.1-11.5C398.6,225.3,394.8,222.2,389,221.9z"/>
	<path class="st3" d="M389,221.9c5.8,0.3,9.6,3.3,10.4,8.3c0.8,5-1.7,9.8-6.1,11.5c-4.8,1.9-10.2-0.1-12.8-4.6
		c-0.4-0.6-1.3-1.2-0.5-2c0.5-0.5,1.2-0.1,1.9,0c5,1.1,8.4-1.7,7.8-6.4c-0.2-1.6-0.7-3.1-2.3-3.9c-0.9-0.5-2.6-0.5-2.2-1.9
		c0.4-1.5,2.1-0.8,3.2-0.9C388.7,221.9,389,221.9,389,221.9z"/>
	
		<linearGradient id="SVGID_1_" gradientUnits="userSpaceOnUse" x1="-297.6378" y1="605.3313" x2="-296.6378" y2="605.3313" gradientTransform="matrix(-646.8478 290.9104 290.9104 646.8478 -367881.9688 -304736.375)">
		<stop  offset="0" style="stop-color:#0D87B0"/>
		<stop  offset="0.6154" style="stop-color:#0D87B0"/>
		<stop  offset="1" style="stop-color:#08769B"/>
	</linearGradient>
	<path class="st4" d="M148.7,337.8c-2.9,3.1-6.4,5.2-10.6,7.2c-14,6.5-27.4,14.4-40.2,23.4c-12.6,8.9-23.5,19.5-33.3,31.4
		c-3,3.6-6.3,7.2-8.2,11.7c-0.3,0.8-0.8,1.6-1.1,2.4c-2.3,5.8-0.7,9,5.3,10.4c3.2,0.7,6.4,0.5,9.5,2.2c3.8,2,7,4.5,9.7,7.8
		c4.3,5.3,9.3,9.6,15.7,11.8c1.5,0.5,3,0.7,4.4,0.7c2.7,0,5.4-0.7,8-1.9c1.4-0.6,3-1.8,4.3-1.8c0.4,0,0.8,0.1,1.1,0.3
		c1.9,1.3,0.3,3.7,0,5.6c-2.9,20.3-4.3,40.7-2.6,61.2c0.7,8.9,1.9,17.8,3.5,26.6C111.8,520.5,101.2,435.2,148.7,337.8 M220.3,236.2
		c-6.4,6.5-12.5,13.3-18.3,20.4C207.7,249.7,213.8,242.9,220.3,236.2 M225,231.5c-1.6,1.5-3.1,3-4.7,4.6
		C221.6,235,223.1,233.5,225,231.5 M388.5,246.6c-7.7,0-14.2-6.7-14.1-14.7c0.1-8,6.6-14.7,14.2-14.7c0,0,0,0,0,0
		c8.1,0,14.3,6.5,14.3,14.9C403,240.7,397,246.6,388.5,246.6 M442.9,168.8c-9.1,0-46.4,1-90.8,14.4l0,0c-5.6,11.7-16.7,24-31.4,33.8
		c-15.5,10.3-31.7,15.6-44.8,15.6c-5.8,0-10.9-1-15.1-3.1l0,0c-1.1,0.9-2.3,1.8-3.4,2.7c-7.4,6-14.6,12.6-21.5,19.8
		c-80.5,84-128.8,175-121.1,287.5c0.8,4.1,1.6,8.2,2.6,12.3c4.1,17.3,10.2,33.9,16.6,50.4c1.9,4.9,4.1,9.7,5.9,14.7
		c2.6,7.3,2.9,14.7,1.8,22.3c-0.6,4-3.5,6.9-6,9.9c-3.5,4.1-7.9,7.3-10,12.8c-2,5.4-2.5,10.8-1.4,16.2c2.2,11.3,4.5,22.6,7.1,33.9
		c1.5,6.9,0.4,14.1,0.6,21.2c0,1.5,0,2.9,0.6,4.3c1.1,2.5,2.4,3.7,4.5,3.7c0.7,0,1.5-0.1,2.3-0.4c16-4.6,29.1-13.4,39.1-27.3
		c5.7-8,11.3-16,15.9-24.7c1.7-3.2,3.1-6.7,4.2-10.2c0.9-3.1,2.9-4,5.6-4c0.7,0,1.3,0,2,0c1.5,0,3.1,0,4.6,0.2
		c1,0.1,1.9,0.1,2.9,0.1c5.4,0,10.5-1.6,15.4-3.7c9.9-4.3,20.2-7.3,29.8-12.4c4.2-2.2,8.8-3.5,13.2-5.2c3-1.2,6.5-2.7,6.8-6.2
		c0.3-3.2-3-5-5.4-6.7c-6.2-4.4-12.7-8.4-19-12.6c-8.5-5.8-16.7-11.9-25.3-17.5c-8.2-5.4-17.3-8.6-27-10.3c-1.1-0.2-2.2-0.3-3.3-0.3
		c-4.5,0-8.6,1.6-12.8,3c-0.8,0.3-1.7,0.6-2.5,0.8c-2.3,0.6-4.3,1-6.1,1c-5.5,0-8.8-3.1-11.3-10.2c-3-8.6-3.3-17.5-2.7-26.6
		c0.9-12.8,3.2-25.2,6.5-37.5c5.2-19.2,12.7-37.4,21.2-55.2c10.1-21.1,22.4-40.7,36.7-58.9c0.5-0.7,0.9-1.5,1.5-2.2
		c1.1-1.2,2-2.2,3.3-2.2c0.7,0,1.6,0.3,2.7,1.1c7,5,14.7,8.7,23,11.1c6.2,1.8,12.5,3.7,18.4,6.2c6.7,2.9,10.1,9,12.9,15.5
		c1,2.5,1.9,5,3.1,7.4c1.7,3.4,3.9,5.3,6.5,5.3c1.6,0,3.2-0.7,5-2c7-5.6,13.5-11.8,18.1-19.8c4.8-8.2,7.9-17,10.5-26.1l1.5-8.8
		c-0.1-7.6,0.3-15.3-0.7-22.9c-2.6-6.9-5.2-13.9-9.9-19.7c-3.4-4.2-7.1-8-11-11.6c-2.2-2-2.2-2.8,0.6-4.4c8.8-5,17.4-10.5,26-15.8
		c11.1-6.7,22.3-13.5,33-20.8c19.7-13.6,39-27.6,57.2-43.1c1.7-1.5,3.1-2.8,5.3-2.8c0.7,0,1.6,0.2,2.5,0.5c0.8,0.3,1.5,0.4,2.2,0.4
		c2.9,0,5.6-2.1,7.9-4.4c0.9-0.9,1.7-1.5,2.8-1.5c0.5,0,1,0.1,1.6,0.4c7.8,3.5,15.6,5,23.4,5c9.9,0,19.8-2.5,29.6-6.6
		c16.2-6.8,30-17.6,44-27.9c5.2-3.8,10.3-7.7,17-8.3c2.2-0.2,3-3.5,1.3-5.4c-2.9-3.3-6-6-10.8-6c-0.3,0-0.7,0-1,0
		c-3.3,0.2-6.6,0.3-9.9,0.3c-2.2,0-4.4,0-6.5-0.1c-2.2,0-4.4-0.1-6.5-0.1c0,0,0,0,0,0c-0.5,0-1.1,0.1-1.7,0.1
		c-0.6,0-1.3-0.1-1.9-0.4c-3.5,0.3-7,0.4-10.4,0.4c-1.8,0-3.6,0-5.3-0.1c-0.5,0.4-1.1,0.6-1.6,0.6c-0.6,0-1.1-0.2-1.7-0.6
		c-1.2,0.1-2.4,0.1-3.6,0.1c-1.6,0-3.3-0.1-4.9-0.5c-5.9-0.2-10.9-2.9-15.5-6.3c-5-3.8-9.6-8-14.4-12.1c-0.8-0.7-1.4-1.4-1.4-2.5
		l0.2-0.1l-0.2,0.1c-3.2-0.8-4.9-3.4-6.6-6l0,0c0,0,0,0,0,0c-1.1,0-2-0.4-2.9-1.2c-2.4-2.1-8.8-5.6-16.6-9.3
		C443.4,169.1,443.1,169,442.9,168.8"/>
	<path class="st3" d="M566.7,215.8c-0.3,0-2.5,0.1-7.8,2.7c-5.3,2.7-13.7,7.9-26.4,18.2c-1.3,1.1-2.7,2.1-4.2,3
		c-12.4,7.5-22.2,12.8-30.5,16.1c-8.4,3.3-15.2,4.8-21.8,4.8c-7.8,0-15.3-2-24.6-5.5c-0.8-0.3-1.6,0.1-1.9,0.9
		c-0.3,0.8,0.1,1.6,0.9,1.9c9.4,3.5,17.3,5.6,25.6,5.6c7.1,0,14.4-1.5,22.9-5c8.6-3.4,18.5-8.7,31-16.3c1.6-1,3.1-2,4.5-3.2
		c12.6-10.3,20.8-15.4,25.8-17.9c2.5-1.3,4.2-1.9,5.2-2.2c0.5-0.1,0.9-0.2,1.1-0.2c0.1,0,0.2,0,0.2,0l0,0l0-0.9l0,0.9l0,0l0-0.9
		l0,0.9c0.8,0,1.5-0.7,1.5-1.5C568.2,216.5,567.5,215.8,566.7,215.8L566.7,215.8z"/>
	<path class="st3" d="M445.9,243.7L445.9,243.7c0.1,0.1,0.9,0.7,1.6,1.8c0.7,1.1,1.4,2.7,1.4,4.9c0,1.7-0.4,3.8-1.6,6.3l1.4,0.6
		l-1.2-0.9c-1.3,1.7-2.6,2.7-3.8,3.2c-1.2,0.6-2.4,0.8-3.3,0.8c-0.9,0-1.7-0.2-2.2-0.3c-0.3-0.1-0.5-0.2-0.6-0.2l-0.1-0.1l0,0
		l-0.2,0.4l0.2-0.4l0,0l-0.2,0.4l0.2-0.4c-0.7-0.4-1.6-0.1-2,0.7c-0.4,0.7-0.1,1.6,0.7,2c0.1,0.1,1.8,0.9,4.3,0.9c1.4,0,3-0.3,4.6-1
		c1.7-0.8,3.4-2.1,4.9-4.1l0.1-0.1l0.1-0.1c1.4-2.9,1.9-5.4,1.9-7.6c0-3-1.1-5.3-2.1-6.8c-1.1-1.5-2.1-2.2-2.2-2.3
		c-0.7-0.5-1.6-0.3-2.1,0.4C445.1,242.3,445.2,243.3,445.9,243.7L445.9,243.7z"/>
	<path class="st5" d="M261.2,341.4c5.5,2.6,27.1,13.4,44.2,35.7c6.2,8,16.1,21.5,16.7,59.7c0,0,24.7-45.2,5.5-71.2
		c-4.2-5.7-8.1-10.5-11.7-14.6c-10.5-11.7-26.3-16.7-41.4-12.9L261.2,341.4z"/>
	
		<linearGradient id="SVGID_2_" gradientUnits="userSpaceOnUse" x1="-297.6378" y1="605.3184" x2="-296.6378" y2="605.3184" gradientTransform="matrix(168.0724 -93.18 -93.18 -168.0724 106395.0625 74461.0938)">
		<stop  offset="0" style="stop-color:#0D87B0"/>
		<stop  offset="0.6154" style="stop-color:#0D87B0"/>
		<stop  offset="1" style="stop-color:#08769B"/>
	</linearGradient>
	<path class="st6" d="M153.4,335c0,0-81.9,39.5-98.2,77.8c-5.8,13.6,6.9,15.3,10.4,8.5c7.9-15.3,28.7-33.2,38.3-38.5
		c42.8-23.2,46.5-26.2,46.5-26.2L153.4,335z"/>
	<path class="st7" d="M445,168.9c0,0-41.7-1.1-92.9,14.3c-0.1,0-0.3,0.1-0.4,0.1c-29.2,8.9-61.5,23.1-90.9,46.1
		c-1.1,0.9-2.3,1.8-3.4,2.7c-7.4,6-14.6,12.6-21.5,19.8c-80.5,84-128.8,175.1-121.1,287.7c0,0-32.5-159.5,105.4-303.5
		c5.1-4.3,13.6-15.1,30.2-30.1c2.7-2.4,5.7-5,8.8-7.7c30.5-25.6,62.2-36.3,90.4-42.2c1.2-0.2,2.3-0.5,3.5-0.7
		C401.1,146.6,433.7,161.4,445,168.9"/>
	
		<linearGradient id="SVGID_3_" gradientUnits="userSpaceOnUse" x1="-297.6378" y1="605.0514" x2="-296.6378" y2="605.0514" gradientTransform="matrix(-646.8478 290.9104 290.9104 646.8478 -367881.9688 -304736.375)">
		<stop  offset="0" style="stop-color:#088FBB"/>
		<stop  offset="0.6154" style="stop-color:#088FBB"/>
		<stop  offset="1" style="stop-color:#057FA8"/>
	</linearGradient>
	<path class="st8" d="M352.1,183.2c-0.1,0-0.3,0.1-0.4,0.1c-29.2,8.9-61.5,23.1-90.9,46.1c4.2,2.1,9.3,3.1,15.1,3.1
		c13.1,0,29.3-5.3,44.8-15.6C335.5,207.2,346.5,194.9,352.1,183.2"/>
	<path class="st9" d="M353.2,155.6L353.2,155.6c-1.2,0.2-2.3,0.4-3.5,0.7c-28.2,5.9-59.9,16.5-90.4,42.2c-3.2,2.7-6.1,5.2-8.8,7.7
		l0,0c-1.1,6.1-0.4,11.8,2.5,16.3c1.4,2.2,3.1,4,5.2,5.4c0.8,0.6,1.7,1.1,2.7,1.6l0,0c29.4-23,61.6-37.2,90.9-46.1
		c0.1,0,0.3-0.1,0.4-0.1l0,0c0.4-0.8,0.8-1.7,1.1-2.5c3.9-9.4,4.3-18.2,0.1-24.9L353.2,155.6"/>
	<path class="st10" d="M301.1,256.6c0,0-3-10.9-11.9-1.7c-8.9,9.1-11.9,16.1,0,15.7C301.1,270.1,302.3,268.7,301.1,256.6z"/>
</g>
</svg>
